<svg xmlns="http://www.w3.org/2000/svg" version="1.1" xmlns:xlink="http://www.w3.org/1999/xlink" xmlns:svgjs="http://svgjs.dev/svgjs" viewBox="0 0 800 800"><defs><filter id="uuunion-blur" x="-100%" y="-100%" width="400%" height="400%" color-interpolation-filters="sRGB">
        <feGaussianBlur in="SourceGraphic" stdDeviation="7.5 0" result="blur"></feGaussianBlur>
        <feDropShadow stdDeviation="12.307692307692308" in="blur" dx="10" dy="10" flood-color="#581c87" flood-opacity="0.25" x="0%" y="0%" width="100%" height="100%"></feDropShadow>
      </filter><filter id="uuunion-blur2" x="-100%" y="-100%" width="400%" height="400%" color-interpolation-filters="sRGB">
        <feGaussianBlur in="SourceGraphic" stdDeviation="7.5 0" result="blur"></feGaussianBlur>
        <feDropShadow stdDeviation="12.307692307692308" in="blur" dx="-10" dy="-10" flood-color="#581c87" flood-opacity="0.25" x="0%" y="0%" width="100%" height="100%"></feDropShadow>
      </filter><linearGradient gradientTransform="rotate(0, 0.5, 0.5)" x1="50%" y1="0%" x2="50%" y2="100%" id="uuunion-grad"><stop stop-color="#0f172a" offset="10%"></stop><stop stop-color="#581c87" offset="90%"></stop></linearGradient><linearGradient gradientTransform="rotate(135, 0.5, 0.5)" x1="50%" y1="0%" x2="50%" y2="100%" id="uuunion-grad2"><stop stop-color="#0f172a" offset="25%"></stop><stop stop-color="#581c87" offset="100%"></stop></linearGradient><linearGradient gradientTransform="rotate(333, 0.5, 0.5)" x1="50%" y1="0%" x2="50%" y2="100%" id="uuunion-grad3"><stop stop-color="#0f172a" offset="0%"></stop><stop stop-color="#581c87" offset="75%"></stop></linearGradient></defs><path d="M-78.92 -85.76Q-64.3 -82.48 -49.69 -78.75 -35.07 -75.24 -20.46 -72.59 -5.85 -71.28 8.76 -71.55 23.37 -73.35 37.98 -76.34 52.6 -80 67.21 -83.66 81.82 -86.65 96.44 -88.44 111.05 -88.7 125.66 -87.39 140.28 -84.74 154.89 -81.23 169.5 -77.5 184.12 -74.22 198.73 -71.98 213.34 -71.2 227.96 -72 242.57 -74.25 257.18 -77.54 271.8 -81.28 286.41 -84.78 301.02 -87.41 315.64 -88.71 330.25 -88.43 344.86 -86.62 359.48 -83.62 374.09 -79.96 388.71 -76.3 403.32 -73.32 417.93 -71.54 432.55 -71.29 447.16 -72.62 461.77 -75.28 476.39 -78.79 491 -82.52 505.61 -85.8 520.23 -88.02 534.84 -88.79 549.45 -87.98 564.07 -85.71 578.68 -82.42 593.29 -78.68 607.91 -75.18 622.52 -72.56 637.13 -71.28 651.75 -71.57 666.36 -73.39 680.97 -76.4 695.59 -80.07 710.2 -83.72 724.81 -86.69 739.43 -88.46 754.04 -88.69 768.65 -87.35 783.27 -84.68 797.88 -81.17 812.5 -77.43 827.11 -74.17 841.72 -71.95 856.34 -71.2 858.3 -55.97 861.7 -40.75 866.32 -25.52 871.85 -10.3 877.92 4.92 884.13 20.14 890.06 35.37 895.33 50.59 899.57 65.82 902.52 81.04 903.96 96.27 903.81 111.49 902.08 126.72 898.88 141.94 894.42 157.17 889 172.39 882.98 187.62 876.77 202.84 870.77 218.07 865.38 233.29 860.97 248.52 857.82 263.74 856.14 278.97 856.05 294.19 857.56 309.42 860.56 324.64 864.85 339.87 870.14 355.09 876.1 370.32 882.31 385.54 888.37 400.77 893.87 415.99 898.45 431.22 901.8 446.44 903.7 461.67 904.02 476.89 902.75 492.12 899.96 507.34 895.85 522.57 890.68 537.79 884.8 553.02 878.6 568.24 872.49 583.47 866.88 598.69 862.15 613.92 858.6 629.14 856.47 644.37 855.91 659.59 856.95 674.82 859.53 690.04 863.46 705.27 868.5 720.49 874.29 735.72 880.47 750.94 886.62 766.17 892.33 781.39 897.21 796.62 900.95 811.84 903.3 827.07 904.09 842.29 903.29 857.52 900.93 872.74 897.19 887.97 892.29 903.19 877.09 901.19 861.89 895.36 846.69 886.74 831.49 876.91 816.29 867.63 801.09 860.59 785.89 857.06 770.69 857.68 755.49 862.33 740.28 870.18 725.08 879.8 709.88 889.46 694.68 897.41 679.48 902.2 664.28 902.98 649.08 899.6 633.88 892.68 618.68 883.46 603.48 873.61 588.27 864.92 573.07 858.95 557.87 856.8 542.67 858.83 527.47 864.7 512.27 873.33 497.07 883.17 481.87 892.43 466.67 899.45 451.47 902.94 436.27 902.29 421.06 897.6 405.86 889.73 390.66 880.1 375.46 870.45 360.26 862.52 345.06 857.76 329.86 857.02 314.66 860.43 299.46 867.39 284.26 876.62 269.06 886.46 253.85 895.14 238.65 901.07 223.45 903.19 208.25 901.12 193.05 895.23 177.85 886.58 162.65 876.74 147.45 867.48 132.25 860.5 117.05 857.04 101.84 857.73 86.64 862.45 71.44 870.34 56.24 879.98 41.04 889.62 25.84 897.52 10.64 902.25 -4.55 902.96 -19.75 899.51 -34.95 892.53 -50.15 883.28 -65.36 873.44 -80.56 864.79 -80.78 849.93 -80.95 835.08 -81.06 820.23 -81.09 805.38 -81.06 790.52 -80.95 775.67 -80.78 760.82 -80.56 745.97 -80.3 731.11 -80.02 716.26 -79.73 701.41 -79.47 686.56 -79.24 671.7 -79.06 656.85 -78.94 642 -78.9 627.15 -78.92 612.29 -79.02 597.44 -79.18 582.59 -79.4 567.74 -79.65 552.88 -79.93 538.03 -80.21 523.18 -80.48 508.33 -80.72 493.47 -80.91 478.62 -81.03 463.77 -81.09 448.92 -81.08 434.06 -80.99 419.21 -80.84 404.36 -80.63 389.51 -80.38 374.65 -80.1 359.8 -79.82 344.95 -79.55 330.1 -79.3 315.24 -79.11 300.39 -78.97 285.54 -78.9 270.69 -78.91 255.83 -78.98 240.98 -79.13 226.13 -79.33 211.28 -79.57 196.42 -79.85 181.57 -80.13 166.72 -80.41 151.87 -80.65 137.01 -80.86 122.16 -81 107.31 -81.08 92.46 -81.09 77.6 -81.02 62.75 -80.89 47.9 -80.69 33.05 -80.45 18.19 -80.18 3.34 -79.9 -11.5 -79.62 -26.35 -79.37 -41.21 -79.16 -56.06 -79 -70.91 -78.92 -85.76" fill="url(#uuunion-grad)"></path><path d="M-78.92 -85.76Q-79 -70.91 -79.16 -56.06 -79.37 -41.21 -79.62 -26.35 -79.9 -11.5 -80.18 3.34 -80.45 18.19 -80.69 33.05 -80.89 47.9 -81.02 62.75 -81.09 77.6 -81.08 92.46 -81 107.31 -80.86 122.16 -80.65 137.01 -80.41 151.87 -80.13 166.72 -79.85 181.57 -79.57 196.42 -79.33 211.28 -79.13 226.13 -78.98 240.98 -78.91 255.83 -78.9 270.69 -78.97 285.54 -79.11 300.39 -79.3 315.24 -79.55 330.1 -79.82 344.95 -80.1 359.8 -80.38 374.65 -80.63 389.51 -70.48 393.34 -60.33 397.71 -50.17 402.26 -40.02 406.63 -29.87 410.47 -19.72 413.45 -0.69 415.82 2.59 415.97 15.12 408.31 27.58 398.85 39.97 388.01 52.29 376.38 64.53 364.64 76.7 353.48 88.8 343.5 100.83 335.16 112.81 328.7 124.74 324.12 136.62 321.19 148.48 319.47 160.32 318.39 172.15 317.28 183.99 315.51 195.85 312.53 207.74 307.94 219.69 301.56 231.69 293.42 243.77 283.79 255.93 273.1 268.19 261.93 280.56 250.9 293.04 240.59 305.64 231.52 318.38 224.01 331.24 218.2 344.24 214.01 357.37 211.16 370.63 209.22 384.01 207.62 397.51 205.78 411.11 203.16 424.82 199.31 438.6 193.95 452.46 187 466.36 178.55 480.3 168.92 494.25 158.53 508.2 147.92 522.12 137.64 535.99 128.18 549.79 119.93 563.5 113.12 577.11 107.81 590.58 103.84 603.9 100.91 617.06 98.6 630.03 96.4 642.81 93.8 655.39 90.35 667.75 85.72 679.89 79.73 691.8 72.37 703.49 63.79 714.96 54.31 726.21 44.35 737.25 34.38 748.1 24.86 758.76 16.2 769.26 8.67 779.62 2.43 789.86 -2.56 800 -6.47 793.46 -23.8 787.51 -41.13 782.69 -58.46 779.44 -75.79 778.04 -93.12 778.62 -110.45 781.14 -127.78 785.36 -145.11 770.71 -147.14 756.07 -147.89 741.42 -147.23 726.78 -145.28 712.13 -142.38 697.48 -139.06 682.84 -135.9 668.19 -133.48 653.55 -132.22 638.9 -132.34 624.25 -133.84 609.61 -136.43 594.96 -139.67 580.32 -142.96 565.67 -145.72 551.02 -147.46 536.38 -147.86 521.73 -146.86 507.09 -144.64 492.44 -141.58 477.79 -138.24 463.15 -135.22 448.5 -133.04 433.86 -132.11 419.21 -132.59 404.57 -134.39 389.92 -137.19 375.27 -140.5 360.63 -143.71 345.98 -146.26 331.34 -147.69 316.69 -147.74 302.04 -146.41 287.4 -143.94 272.75 -140.76 258.11 -137.44 243.46 -134.58 228.81 -132.69 214.17 -132.1 199.52 -132.92 184.88 -135.01 170.23 -137.99 155.58 -141.32 140.94 -144.42 126.29 -146.73 111.65 -147.83 97 -147.54 82.35 -145.9 67.71 -143.2 53.06 -139.93 38.42 -136.67 23.77 -134.01 9.12 -132.41 -5.51 -132.17 -20.16 -133.33 -34.8 -135.68 -49.45 -138.8 -64.1 -142.13 -78.74 -145.08 -93.39 -147.13 -108.03 -147.89 -122.68 -147.25 -132.07 -132.97 -115.03 -118.18 -105.95 -110.94 -96.91 -103.11 -87.9 -94.71 -78.92 -85.76" fill="url(#uuunion-grad2)" filter="url(#uuunion-blur)"></path><path d="M812.66 389.63Q822.81 393.48 832.96 397.87 843.11 402.42 853.26 406.78 863.41 410.59 873.57 413.54 883.72 415.39 893.87 415.99 898.45 431.22 901.8 446.44 903.7 461.67 904.02 476.89 902.75 492.12 899.96 507.34 895.85 522.57 890.68 537.79 884.8 553.02 878.6 568.24 872.49 583.47 866.88 598.69 862.15 613.92 858.6 629.14 856.47 644.37 855.91 659.59 856.95 674.82 859.53 690.04 863.46 705.27 868.5 720.49 874.29 735.72 880.47 750.94 886.62 766.17 892.33 781.39 897.21 796.62 900.95 811.84 903.3 827.07 904.09 842.29 903.29 857.52 900.93 872.74 897.19 887.97 892.29 903.19 878.34 901.51 864.39 896.55 850.44 889.05 836.49 880.17 822.54 871.27 808.59 863.7 794.64 858.61 780.69 856.8 766.74 858.52 752.79 863.52 738.84 871.04 724.89 879.93 710.94 888.82 696.99 896.37 683.04 901.42 669.09 903.19 655.14 901.43 641.19 896.39 627.24 888.84 613.29 879.95 599.34 871.06 585.39 863.54 571.44 858.53 557.49 856.8 543.54 858.61 529.59 863.68 515.64 871.25 501.69 880.15 487.74 889.03 473.79 896.53 459.84 901.5 445.89 903.19 431.94 901.34 417.99 896.23 404.04 888.64 390.09 879.72 376.14 870.85 362.19 863.38 348.24 858.44 334.29 856.8 320.34 858.69 306.39 863.84 292.44 871.46 278.49 880.38 264.54 889.24 250.59 896.69 236.64 901.59 222.69 903.19 208.74 901.25 194.79 896.07 180.84 888.43 166.89 879.5 152.94 870.65 138.99 863.22 125.04 858.36 111.09 856.8 97.14 858.78 83.19 864 69.24 871.67 55.29 880.6 41.34 889.44 27.39 896.84 6.54 897.35 -0.24 882.89 -0.15 872.74 -0.08 862.59 -0.04 852.44 -0.02 842.29 0.19 827.06 0.94 822 13.69 814.27 26.4 803.98 39.05 791.65 51.65 778.06 64.17 764.15 76.62 750.89 89 739.15 101.29 729.6 113.5 722.64 125.63 718.35 137.69 716.44 149.67 716.36 161.58 717.3 173.44 718.36 185.25 718.62 197.01 717.27 208.75 713.7 220.48 707.59 232.2 698.96 243.94 688.13 255.71 675.69 267.51 662.43 279.38 649.25 291.32 637.01 303.34 626.46 315.46 618.12 327.7 612.24 340.05 608.74 352.54 607.25 365.16 607.17 377.93 607.69 390.85 607.97 403.91 607.18 417.12 604.65 430.48 599.92 443.98 592.84 457.61 583.52 471.36 572.38 485.22 560.04 499.18 547.29 513.21 534.95 527.31 523.77 541.46 514.37 555.62 507.12 569.79 502.13 583.93 499.2 598.03 497.92 612.06 497.62 626 497.56 639.82 496.96 653.51 495.1 667.05 491.46 680.41 485.72 693.58 477.85 706.54 468.06 719.28 456.83 731.79 444.8 744.07 432.7 756.1 421.26 767.88 411.14 779.42 402.81 790.73 396.49 807.23 390.91 812.66 389.63" fill="url(#uuunion-grad3)" filter="url(#uuunion-blur2)"></path></svg>